<svg version="1.0" xmlns="http://www.w3.org/2000/svg" xmlns:xlink="http://www.w3.org/1999/xlink" x="0px" y="0px"
	 viewBox="0 0 595.28003 841.89001">
	<g>
		<path fill="#ff7932" d="M592.15259,552.74963c-0.68805,0.22491-1.43121,0.34869-2.05597,0.68951
			c-17.45898,9.52423-36.07727,15.29999-55.82605,17.63489c-20.63275,2.43945-41.10461,1.31689-61.48868-2.31488
			c-36.90271-6.57501-70.66263-21.00397-102.5239-40.47827c-28.99689-17.72357-54.03082-39.79504-75.07788-66.41272
			c-13.40329-16.95087-23.84906-35.58585-32.26093-55.51929c-5.50238-13.03897-9.05116-26.47162-11.07243-40.34305
			c-2.01176-13.80618-2.61018-27.75287-0.26489-41.55795c1.86037-10.95062,4.63466-21.74545,6.97581-32.61536
			c0.53781-2.49704,1.90451-4.12759,3.9826-5.75833c22.67023-17.78973,45.27237-35.66801,67.75427-53.69524
			c11.6127-9.31165,22.89865-19.02954,34.41718-28.46013c37.75784-30.91364,72.62427-64.84488,105.53445-100.83128
			c5.86661-6.41501,11.89417-12.68282,18.52353-19.73818c-3.02179,4.74055-5.44153,8.76994-8.08478,12.64693
			c-23.34164,34.2363-48.88574,66.69919-78.02097,96.23204c-10.15591,10.29451-20.36743,20.54831-30.88922,30.46454
			c-18.7977,17.71587-37.94608,35.0596-56.75327,52.76556c-8.51306,8.01462-16.5751,16.50946-24.79462,24.83304
			c-0.79062,0.8006-1.45096,1.85995-1.8252,2.92142c-3.58609,10.17102-5.55377,20.63736-6.16486,31.42899
			c-1.91727,33.85928,8.35413,64.51682,24.53949,93.55603c14.58301,26.16422,33.30765,49.14996,55.98093,68.6478
			c31.62244,27.19366,66.73706,48.33051,107.56006,58.8631c20.48059,5.28406,41.29089,7.87042,62.43472,6.8244
			c14.65912-0.72516,29.12372-3.01569,43.17609-7.41632c5.45361-1.70782,10.81891-3.69745,16.22449-5.55865
			C592.15259,550.62201,592.15259,551.68579,592.15259,552.74963z"/>
		<path fill="#ff6615" d="M592.15259,575.08936c-20.6402,11.44696-41.79156,21.77405-64.2666,29.17188
			c-19.72299,6.49194-39.86887,10.76312-60.63959,12.25439c-33.81244,2.42761-66.33173-2.85675-98.0603-14.6203
			c-29.09586-10.78754-55.05692-26.96527-80.15591-44.78699c-7.80234-5.54004-15.35883-11.45477-23.39334-16.63062
			c-6.64294-4.2793-13.10828-9.06866-21.05537-10.99835c-3.31998-0.80615-6.02071-0.03162-8.59102,2.02161
			c-8.00064,6.39136-13.23094,14.90594-18.02539,23.69971c-10.9113,20.01306-19.11188,41.21515-26.46988,62.70898
			c-11.8849,34.71759-22.93097,69.72461-35.00693,104.3739c-12.97505,37.22919-26.72891,74.18695-40.15097,111.26019
			c-0.10542,0.29108-0.32204,0.54193-0.28733,0.48511c5.75003-22.71783,11.77575-45.73663,17.37785-68.85803
			c6.98929-28.84668,13.10672-57.91333,20.54535-86.64032c10.67018-41.20679,18.8569-83.10303,33.08693-123.3349
			c4.19971-11.87366,9.55399-23.3515,14.6756-34.87903c1.57788-3.55145,3.96066-6.79657,6.27942-9.95865
			c10.21855-13.93478,23.52953-17.61359,39.55614-10.99069c12.30298,5.08414,22.87952,12.8941,33.32245,20.98706
			c17.97943,13.93365,35.71643,28.23859,54.332,41.27869c25.31564,17.73346,53.52615,29.37561,83.81677,35.68665
			c12.58008,2.62103,25.3414,3.81146,38.22388,4.25012c40.88821,1.39233,79.80515-7.71393,117.9097-21.43451
			c5.68109-2.04565,11.31879-4.21191,16.97656-6.32245C592.15259,574.23834,592.15259,574.66382,592.15259,575.08936z"/>
		<path fill="#ff6615" d="M85.56667,820.77466c1.98209-11.26422,4.03737-22.51611,5.92989-33.79535
			c3.19202-19.02417,6.38123-38.04987,9.38282-57.10455c2.62271-16.64948,5.12402-33.32086,7.42094-50.01801
			c1.97962-14.39075,3.69383-28.82031,5.34548-43.25323c1.76057-15.3847,3.44245-30.78094,4.90836-46.19598
			c1.11514-11.7265,2.0241-23.47961,2.69257-35.23975c0.9702-17.0686,2.14894-34.14935,2.30937-51.23367
			c0.1955-20.81799-0.41684-41.64923-0.97208-62.46689c-0.47009-17.62466-2.31427-35.13159-5.657-52.46542
			c-6.10162-31.64014-17.04447-61.43225-33.22298-89.3652c-11.17822-19.29971-21.71581-38.9696-32.62581-58.4258
			c-15.4725-27.59256-26.38259-56.92577-32.70499-87.8607c-2.83847-13.88835-4.79147-28.01434-6.17977-42.12755
			C10.59409,94.9633,10.0626,78.59901,9.4081,62.25082c4.41492,28.14241,9.65952,56.06813,17.67064,83.41747
			c5.64853,19.28366,12.23247,38.27477,21.39303,56.14644c13.23708,25.82472,28.07455,50.76149,45.90062,73.74554
			c17.05907,21.99518,28.47227,46.67993,36.05305,73.28308c5.38805,18.90823,8.77678,38.19092,11.01761,57.71924
			c2.95042,25.71225,3.69656,51.51428,2.91298,77.32593c-0.56329,18.55481-1.97554,37.10324-3.61992,55.60019
			c-1.51117,16.99866-3.44196,33.9826-5.90779,50.86792c-3.06247,20.97095-6.56427,41.88934-10.4061,62.73279
			c-10.26598,55.69714-24.06281,110.59485-38.00916,165.45306c-0.19511,0.7674-0.45238,1.51904-0.68063,2.27802
			C85.67719,820.80518,85.62193,820.78992,85.56667,820.77466z"/>
		<path fill="#ff6615" d="M448.46213,88.3179c-12.63873,10.21962-25.18207,20.56018-37.94217,30.62598
			c-13.68756,10.79745-27.26892,21.77037-41.44366,31.90132c-33.22708,23.74805-67.53058,45.79286-105.11166,62.19977
			c-27.64809,12.07045-55.97595,22.28867-85.42827,28.99408c-14.63098,3.33105-28.41859-0.36963-41.43614-7.26651
			c-17.86514-9.46519-32.26558-23.07129-45.264-38.27921c-16.17973-18.93002-28.8529-40.09074-40.38571-62.11914
			C40.14587,112.78164,32.29633,90.0833,26.63299,66.52663c-1.77893-7.39947-2.9824-14.93729-3.94742-22.55866
			c2.93518,7.30105,5.72789,14.66341,8.83727,21.8895c5.32778,12.38155,10.249,24.99014,16.42307,36.9445
			c12.5615,24.32185,25.2462,48.62952,42.70573,70.00186c11.99928,14.6884,25.32433,27.82961,42.17248,36.95831
			c11.46591,6.21249,23.68346,9.48868,36.76231,10.11996c13.72633,0.66255,26.68481-3.00166,39.73763-6.16861
			c53.17752-12.90221,102.18903-35.38757,147.87909-65.21086c29.80304-19.45334,59.25491-39.44462,88.86398-59.19506
			c0.70026-0.46713,1.39938-0.9359,2.09906-1.4039C448.26483,88.04175,448.36349,88.17982,448.46213,88.3179z"/>
		<path fill="#ff6615" d="M132.69319,156.03542c5.85321,4.15135,10.61577,8.57391,16.20613,11.29701
			c16.36507,7.97151,35.16862,2.10641,46.4776-13.81206c14.04407-19.76836,12.97601-48.76035-2.48959-67.33382
			c-4.29698-5.16047-9.55925-9.01217-15.78659-11.53754c-0.87497-0.35483-1.75015-0.70935-2.61905-1.07851
			c-0.04564-0.01939-0.03355-0.17472-0.08089-0.46947c13.50854-1.24497,25.06818,2.99721,34.76639,12.26183
			c11.33034,10.82378,16.97917,24.3621,18.47173,39.81171c1.71788,17.782-2.37386,34.0143-13.50308,48.0636
			c-9.40442,11.87198-21.65155,18.82755-37.19518,17.96307c-14.74722-0.82018-26.59615-7.61285-35.17847-19.59032
			C138.35587,166.85703,135.82318,161.47719,132.69319,156.03542z"/>
	</g>
</svg>
